inDegrees=yes
name=ik_S41_A03_T01
DataType=double
version=3
OpenSimVersion=4.3-2021-08-27-4bc7ad9
endheader
time	pelvis_tilt	pelvis_list	pelvis_rotation	pelvis_tx	pelvis_ty	pelvis_tz	hip_flexion_r	hip_adduction_r	hip_rotation_r	knee_angle_r	knee_angle_r_beta	ankle_angle_r	subtalar_angle_r	mtp_angle_r	hip_flexion_l	hip_adduction_l	hip_rotation_l	knee_angle_l	knee_angle_l_beta	ankle_angle_l	subtalar_angle_l	mtp_angle_l	lumbar_extension	lumbar_bending	lumbar_rotation	arm_flex_r	arm_add_r	arm_rot_r	elbow_flex_r	pro_sup_r	wrist_flex_r	wrist_dev_r	arm_flex_l	arm_add_l	arm_rot_l	elbow_flex_l	pro_sup_l	wrist_flex_l	wrist_dev_l
27.15999999999951	-2.270768012001062	3.768431956812666	-81.67145040152896	0	0.9399999999999999	0	-1.03858684555503	0.2042774974995165	-7.423839539424559	18.90142125283909	0.3298920341684737	0	0	0	13.27708825622298	8.337947411466692	-15.10788692123553	0.4905175197895912	0.008561145759044809	0	0	0	0	0	0	39.11989256120768	-39.11989256120768	4.857777069257342	83.03591034688245	85.14222319917876	0	0	39.11989256120768	-39.11989256120768	4.857777069257342	83.03591034688245	85.14222319915312	0	0
27.17999999999951	-2.58529999535684	4.291817419853222	-80.82727533938548	0	0.9399999999999999	0	1.38512643642759	-0.4249603591112612	-7.089696708131302	23.50340848682283	0.4102118635362367	0	0	0	13.54655990405435	7.974115091616221	-14.24014424750705	1.801242019421332	0.03143760386417389	0	0	0	0	0	0	39.12377631583871	-39.12377631583871	4.857965613579255	83.03851522598009	85.14203465486545	0	0	39.12377631583871	-39.12377631583871	4.857965613579255	83.03851522598009	85.14203465483983	0	0
27.19999999999951	-2.865997016417519	4.391396096512296	-79.70055420876763	0	0.9399999999999999	0	3.743501076113263	-0.8675689403242358	-6.212759445677205	28.35621592940853	0.4949093313746429	0	0	0	13.49250507941053	7.813424634511082	-13.23432545588795	2.248337659625755	0.039240894857053	0	0	0	0	0	0	39.15954809439514	-39.15954809439514	4.859446477173425	83.05897015896106	85.14055379133686	0	0	39.15954809439514	-39.15954809439514	4.859446477173425	83.05897015896106	85.14055379131145	0	0
27.21999999999951	-2.968593881220336	4.31043674202546	-78.99356323093753	0	0.9399999999999999	0	6.380416139568469	-1.450919271957871	-3.723333828007908	33.43123487898587	0.5834851216458714	0	0	0	13.40458908912859	7.651690733125317	-12.80977051467601	3.499609504225716	0.06107970838282516	0	0	0	0	0	0	39.18988028182909	-39.18988028182909	4.8607050829034	83.07635512535126	85.13929518566262	0	0	39.18988028182909	-39.18988028182909	4.8607050829034	83.07635512535126	85.13929518563747	0	0
27.23999999999951	-3.142919192682106	4.127049398750504	-77.43659299299657	0	0.9399999999999999	0	9.266377951169185	-2.337223682787716	-1.363479657027111	38.82950374380896	0.6777026872449312	0	0	0	13.23498732208318	7.696451981770496	-11.84000156822561	4.384369848665669	0.07652168948438143	0	0	0	0	0	0	39.21386649562128	-39.21386649562128	4.861702163074864	83.09012769669708	85.13829810553536	0	0	39.21386649562128	-39.21386649562128	4.861702163074864	83.09012769669708	85.13829810551027	0	0
27.25999999999951	-3.267920396206109	3.873668753651142	-75.49822494631704	0	0.9399999999999999	0	11.80398975752365	-3.389035283172617	-0.5257465229226428	43.95158661947806	0.7670998979853761	0	0	0	12.72886987029423	7.936889808174639	-9.892142567091483	4.612185667050142	0.08049782560331593	0	0	0	0	0	0	39.2429432624231	-39.2429432624231	4.862903966250794	83.10672794785289	85.13709630241256	0	0	39.2429432624231	-39.2429432624231	4.862903966250794	83.10672794785289	85.13709630238768	0	0
27.27999999999951	-3.492119697301994	3.669251088050543	-72.05125636608796	0	0.9399999999999999	0	11.48312532480578	-3.752582829294017	-3.694073825015864	44.98115960769249	0.7850693365193149	0	0	0	12.39298039870197	8.482451562782574	-7.214455095936075	5.581666704640751	0.09741846174492297	0	0	0	0	0	0	39.24702583440095	-39.24702583440095	4.863099155795791	83.10942453409413	85.13690111287639	0	0	39.24702583440095	-39.24702583440095	4.863099155795791	83.10942453409413	85.13690111285152	0	0
27.29999999999951	-3.680433492309034	3.463916702873262	-69.23396786929673	0	0.9399999999999999	0	11.17592727756484	-4.105439816609819	-6.119641811423413	47.08647009372308	0.8218139362773107	0	0	0	12.12822102664492	8.834891389010503	-5.527565775777703	6.519993595319432	0.1137953554472668	0	0	0	0	0	0	39.25119034867409	-39.25119034867409	4.863298174359931	83.11217401548089	85.13670209432127	0	0	39.25119034867409	-39.25119034867409	4.863298174359931	83.11217401548089	85.13670209429644	0	0
27.31999999999951	-3.722951271175791	2.969434498356649	-66.22716054728531	0	0.9399999999999999	0	14.78043276548935	-5.20233546385421	-8.998177554566263	53.16178148850548	0.9278481232001926	0	0	0	11.43627573488087	9.24262821348213	-3.760176766999487	7.32550688448931	0.1278542145118504	0	0	0	0	0	0	39.29086809456729	-39.29086809456729	4.864913806832655	83.13448994256436	85.13508646191987	0	0	39.29086809456729	-39.29086809456729	4.864913806832655	83.13448994256436	85.13508646189526	0	0
27.33999999999951	-3.749724863706489	2.520859525341414	-62.94826713348776	0	0.9399999999999999	0	16.00575654082303	-5.992294995172334	-7.147272426909836	56.57088638436024	0.9873482281787165	0	0	0	10.9239371902429	9.485399973573728	-3.050591911200069	8.463764024285322	0.1477205493356242	0	0	0	0	0	0	39.30626676481752	-39.30626676481752	4.865547477708328	83.14324263897754	85.13445279107218	0	0	39.30626676481752	-39.30626676481752	4.865547477708328	83.14324263897754	85.13445279104774	0	0
27.35999999999951	-3.871255692616203	2.266040919726115	-59.63009227710443	0	0.9399999999999999	0	17.32482964142463	-6.179212566091479	-6.212633813922777	58.3186522976799	1.017852497920271	0	0	0	10.34179911513884	9.633727951793182	-1.160636753569489	8.869474446024707	0.1548015320046312	0	0	0	0	0	0	39.32360234899352	-39.32360234899352	4.866263792795701	83.15313691804808	85.13373647601644	0	0	39.32360234899352	-39.32360234899352	4.866263792795701	83.15313691804808	85.13373647599209	0	0
27.37999999999951	-3.988170703935512	1.996921940071671	-56.15913360168803	0	0.9399999999999999	0	18.15459422263512	-5.992189042819269	-6.066305051398074	58.94760410550815	1.028829777803244	0	0	0	9.732151578839684	9.708799606519936	0.691094794766011	9.191388638659378	0.1604199945750055	0	0	0	0	0	0	39.34075491486219	-39.34075491486219	4.866969823208944	83.1628890863027	85.13303044563447	0	0	39.34075491486219	-39.34075491486219	4.866969823208944	83.1628890863027	85.13303044561017	0	0
27.3999999999995	-4.007808248705067	1.785491929781759	-54.39046495578407	0	0.9399999999999999	0	18.95479099075698	-4.955042383142063	-4.107061776875348	58.84897009646742	1.027108289591042	0	0	0	9.40489298678223	9.501580478522104	0.5700603052842402	9.438302623369529	0.1647294565774166	0	0	0	0	0	0	39.35221793614365	-39.35221793614365	4.867436947314839	83.16934123772879	85.13256332154914	0	0	39.35221793614365	-39.35221793614365	4.867436947314839	83.16934123772879	85.13256332152496	0	0
27.4199999999995	-4.070673509157393	1.407062322562757	-50.6948292755546	0	0.9399999999999999	0	19.62498526511418	-4.461368913612159	-2.938170221424583	58.78707060390808	1.026027939640567	0	0	0	8.740311195470793	9.331598567875325	2.053265568297524	9.723124586940633	0.1697005376237277	0	0	0	0	0	0	39.3653796789912	-39.3653796789912	4.867964210782677	83.17662391106732	85.13203605810452	0	0	39.3653796789912	-39.3653796789912	4.867964210782677	83.17662391106732	85.1320360580804	0	0
27.4399999999995	-4.182770680265975	1.059843884916004	-46.75765533113547	0	0.9399999999999999	0	20.24586336868073	-4.106018116755258	-1.62528086215881	58.8843445914588	1.027725690999871	0	0	0	8.170574683031276	9.0734183593258	3.482149305808601	10.13108935470934	0.1768208660534257	0	0	0	0	0	0	39.37838858061609	-39.37838858061609	4.868484131800637	83.18380514749686	85.13151613710941	0	0	39.37838858061609	-39.37838858061609	4.868484131800637	83.18380514749686	85.13151613708537	0	0
27.4599999999995	-4.261512747239887	0.2905997877330048	-38.07916783350951	0	0.9399999999999999	0	19.90321650647624	-4.866301295527352	-6.078748110210717	59.06763690900068	1.030924745434588	0	0	0	6.195596410937073	9.429234627912509	11.84524133677568	9.538970357026715	0.1664864399802552	0	0	0	0	0	0	39.40916607887025	-39.40916607887025	4.869759009706258	83.20141470377318	85.13024125926016	0	0	39.40916607887025	-39.40916607887025	4.869759009706258	83.20141470377318	85.13024125923634	0	0
